<svg width="56" height="56" viewBox="0 0 56 56" fill="none" xmlns="http://www.w3.org/2000/svg">
<path d="M22.7784 23.3134C23.6204 23.0431 24.5005 22.8352 25.4159 22.6882C26.3314 22.5413 27.3298 22.4678 28.4139 22.4678C30.4366 22.4678 32.1097 22.7076 33.4346 23.1858C34.7582 23.6641 35.8192 24.3211 36.6136 25.1555C37.4079 25.99 37.9616 26.9658 38.2744 28.0816C38.5873 29.1989 38.7437 30.3951 38.7437 31.6703V33.1424C38.7437 34.419 38.5873 35.6152 38.2744 36.7311C37.9616 37.8483 37.4079 38.8241 36.6136 39.6572C35.8192 40.4916 34.7527 41.1486 33.4169 41.6268C32.0798 42.1051 30.389 42.3449 28.3418 42.3449H27.3298C25.3071 42.3449 23.6326 42.1051 22.3091 41.6268C20.9842 41.1486 19.9246 40.4916 19.1302 39.6572C18.3358 38.8227 17.7808 37.8483 17.4693 36.7311C17.1564 35.6152 17 34.419 17 33.1424V14H18.4446L22.7797 16.5768V23.3134H22.7784ZM28.0888 27.8044C27.0768 27.8044 26.1382 27.8723 25.2717 28.0068C24.4052 28.1412 23.5741 28.345 22.7797 28.6139V32.405C22.7797 32.9941 22.8029 33.5707 22.8518 34.1348C22.8994 34.699 23.0872 35.1897 23.4123 35.6069C23.7374 36.0241 24.2366 36.361 24.9113 36.6188C25.5846 36.8766 26.5599 37.0055 27.8372 37.0055C29.1145 37.0055 30.1006 36.8766 30.7998 36.6188C31.4976 36.361 32.0104 36.0241 32.3355 35.6069C32.6606 35.1897 32.847 34.699 32.896 34.1348C32.9436 33.5707 32.9681 32.9941 32.9681 32.405C32.9681 31.8159 32.9436 31.2392 32.896 30.6751C32.847 30.1109 32.6674 29.6202 32.3546 29.203C32.0417 28.7858 31.5602 28.4476 30.91 28.1911C30.2598 27.9333 29.3212 27.8044 28.0929 27.8044H28.0888Z" fill="#292929"/>
</svg>
