<svg width="101" height="36" viewBox="0 0 101 36" fill="none" xmlns="http://www.w3.org/2000/svg">
<path d="M18 36C27.9411 36 36 27.9411 36 18C36 8.05887 27.9411 0 18 0C8.05887 0 0 8.05887 0 18C0 27.9411 8.05887 36 18 36Z" fill="#FAFAFA"/>
<path d="M14.659 14.8316C15.1922 14.6624 15.7495 14.5322 16.3292 14.4402C16.9089 14.3482 17.5411 14.3022 18.2276 14.3022C19.5084 14.3022 20.5679 14.4523 21.4068 14.7518C22.2449 15.0512 22.9168 15.4626 23.4198 15.9851C23.9228 16.5076 24.2734 17.1186 24.4715 17.8173C24.6696 18.5169 24.7687 19.2659 24.7687 20.0644V20.9861C24.7687 21.7855 24.6696 22.5345 24.4715 23.2332C24.2734 23.9327 23.9228 24.5438 23.4198 25.0654C22.9168 25.5879 22.2415 25.9993 21.3956 26.2987C20.5489 26.5981 19.4783 26.7483 18.1819 26.7483H17.5411C16.2603 26.7483 15.1999 26.5981 14.3618 26.2987C13.5229 25.9993 12.8519 25.5879 12.3489 25.0654C11.8458 24.5429 11.4944 23.9327 11.2972 23.2332C11.0991 22.5345 11 21.7855 11 20.9861V9H11.9148L14.6599 10.6135V14.8316H14.659ZM18.0217 17.6437C17.3809 17.6437 16.7865 17.6862 16.2379 17.7704C15.6892 17.8546 15.1629 17.9822 14.6599 18.1506V20.5244C14.6599 20.8932 14.6745 21.2543 14.7055 21.6076C14.7357 21.9608 14.8545 22.268 15.0604 22.5293C15.2663 22.7905 15.5824 23.0014 16.0096 23.1629C16.436 23.3243 17.0536 23.405 17.8624 23.405C18.6712 23.405 19.2956 23.3243 19.7384 23.1629C20.1803 23.0014 20.505 22.7905 20.7108 22.5293C20.9167 22.268 21.0347 21.9608 21.0657 21.6076C21.0959 21.2543 21.1114 20.8932 21.1114 20.5244C21.1114 20.1555 21.0959 19.7944 21.0657 19.4412C21.0347 19.088 20.921 18.7807 20.7229 18.5195C20.5248 18.2582 20.2199 18.0464 19.8082 17.8859C19.3964 17.7244 18.8021 17.6437 18.0243 17.6437H18.0217Z" fill="black"/>
<path d="M42.5534 13.781C42.8626 13.6829 43.1856 13.6074 43.5215 13.5536C43.8575 13.4998 44.2244 13.4738 44.6223 13.4738C45.3648 13.4738 45.9798 13.5606 46.4656 13.7342C46.9514 13.9077 47.3408 14.1464 47.6328 14.4493C47.9248 14.7522 48.128 15.1064 48.2426 15.5117C48.3572 15.917 48.4149 16.3518 48.4149 16.8144V17.3491C48.4149 17.8126 48.3572 18.2465 48.2426 18.6518C48.1272 19.0572 47.9239 19.4113 47.6328 19.7142C47.3408 20.0171 46.9497 20.2558 46.4587 20.4294C45.9678 20.603 45.3467 20.6897 44.5956 20.6897H44.2244C43.4819 20.6897 42.8669 20.603 42.3811 20.4294C41.8945 20.2558 41.506 20.0171 41.214 19.7142C40.922 19.4113 40.7187 19.0572 40.6042 18.6518C40.4896 18.2465 40.4319 17.8126 40.4319 17.3491V10.3996H40.9625L42.5542 11.3352V13.781H42.5534ZM44.5026 15.4119C44.1314 15.4119 43.7868 15.4362 43.4681 15.4856C43.1494 15.5351 42.8445 15.608 42.5534 15.7061V17.0826C42.5534 17.2961 42.562 17.5062 42.5801 17.711C42.5973 17.9158 42.6662 18.0946 42.786 18.2457C42.9057 18.3975 43.0883 18.5199 43.3364 18.6128C43.5836 18.7065 43.9419 18.7534 44.4105 18.7534C44.879 18.7534 45.2417 18.7065 45.4983 18.6128C45.755 18.5191 45.9428 18.3967 46.0617 18.2457C46.1814 18.0946 46.2494 17.9158 46.2675 17.711C46.2848 17.5062 46.2942 17.297 46.2942 17.0826C46.2942 16.8682 46.2856 16.6591 46.2675 16.4542C46.2494 16.2494 46.1831 16.0715 46.0686 15.9196C45.954 15.7686 45.7766 15.6453 45.538 15.5525C45.2994 15.4587 44.9548 15.4119 44.5035 15.4119H44.5026Z" fill="#FAFAFA"/>
<path d="M50.0073 16.8144C50.0073 16.351 50.065 15.917 50.1796 15.5117C50.2942 15.1064 50.4983 14.7522 50.7894 14.4493C51.0814 14.1464 51.4699 13.9078 51.9566 13.7342C52.4424 13.5606 53.0574 13.4738 53.7998 13.4738H54.1711C54.9136 13.4738 55.5286 13.5606 56.0144 13.7342C56.5002 13.9078 56.8895 14.1464 57.1815 14.4493C57.4735 14.7522 57.6768 15.1064 57.7913 15.5117C57.9059 15.917 57.9636 16.3518 57.9636 16.8144V17.3491C57.9636 17.8126 57.9059 18.2465 57.7913 18.6519C57.6768 19.0572 57.4726 19.4113 57.1815 19.7142C56.8895 20.0171 56.5002 20.2558 56.0144 20.4294C55.5277 20.603 54.9136 20.6898 54.1711 20.6898H53.7998C53.0574 20.6898 52.4424 20.603 51.9566 20.4294C51.4699 20.2558 51.0814 20.0171 50.7894 19.7142C50.4974 19.4113 50.2942 19.0572 50.1796 18.6519C50.065 18.2465 50.0073 17.8126 50.0073 17.3491V16.8144ZM52.1297 17.0818C52.1297 17.2953 52.1383 17.5053 52.1564 17.7102C52.1736 17.915 52.2425 18.0938 52.3622 18.2448C52.482 18.3967 52.6646 18.5191 52.9127 18.6119C53.1599 18.7057 53.5182 18.7525 53.9868 18.7525C54.4553 18.7525 54.8024 18.7057 55.0548 18.6119C55.3063 18.5182 55.4924 18.3958 55.6121 18.2448C55.7318 18.0938 55.7999 17.915 55.818 17.7102C55.8352 17.5053 55.8447 17.2961 55.8447 17.0818C55.8447 16.8674 55.8361 16.6582 55.818 16.4534C55.7999 16.2486 55.7318 16.0706 55.6121 15.9187C55.4924 15.7677 55.3072 15.6445 55.0548 15.5516C54.8024 15.4579 54.4467 15.411 53.9868 15.411C53.5268 15.411 53.1599 15.4579 52.9127 15.5516C52.6646 15.6453 52.482 15.7677 52.3622 15.9187C52.2425 16.0706 52.1745 16.2486 52.1564 16.4534C52.1383 16.6582 52.1297 16.8674 52.1297 17.0818Z" fill="#FAFAFA"/>
<path d="M59.5554 16.8144C59.5554 16.351 59.6131 15.917 59.7277 15.5117C59.8422 15.1064 60.0464 14.7522 60.3375 14.4493C60.6295 14.1464 61.018 13.9078 61.5047 13.7342C61.9905 13.5606 62.6055 13.4738 63.3479 13.4738H63.7192C64.4617 13.4738 65.0767 13.5606 65.5625 13.7342C66.0483 13.9078 66.4376 14.1464 66.7296 14.4493C67.0216 14.7522 67.2249 15.1064 67.3394 15.5117C67.454 15.917 67.5117 16.3518 67.5117 16.8144V17.3491C67.5117 17.8126 67.454 18.2465 67.3394 18.6519C67.2249 19.0572 67.0207 19.4113 66.7296 19.7142C66.4376 20.0171 66.0483 20.2558 65.5625 20.4294C65.0758 20.603 64.4617 20.6898 63.7192 20.6898H63.3479C62.6055 20.6898 61.9905 20.603 61.5047 20.4294C61.018 20.2558 60.6295 20.0171 60.3375 19.7142C60.0455 19.4113 59.8422 19.0572 59.7277 18.6519C59.6131 18.2465 59.5554 17.8126 59.5554 17.3491V16.8144ZM61.6778 17.0818C61.6778 17.2953 61.6864 17.5053 61.7045 17.7102C61.7217 17.915 61.7906 18.0938 61.9103 18.2448C62.0301 18.3967 62.2127 18.5191 62.4608 18.6119C62.708 18.7057 63.0663 18.7525 63.5349 18.7525C64.0034 18.7525 64.3506 18.7057 64.6029 18.6119C64.8544 18.5182 65.0405 18.3958 65.1602 18.2448C65.2799 18.0938 65.348 17.915 65.3661 17.7102C65.3833 17.5053 65.3928 17.2961 65.3928 17.0818C65.3928 16.8674 65.3842 16.6582 65.3661 16.4534C65.348 16.2486 65.2799 16.0706 65.1602 15.9187C65.0405 15.7677 64.8553 15.6445 64.6029 15.5516C64.3506 15.4579 63.9948 15.411 63.5349 15.411C63.0749 15.411 62.708 15.4579 62.4608 15.5516C62.2127 15.6453 62.0301 15.7677 61.9103 15.9187C61.7906 16.0706 61.7226 16.2486 61.7045 16.4534C61.6864 16.6582 61.6778 16.8674 61.6778 17.0818Z" fill="#FAFAFA"/>
<path d="M74.8341 20.4224L73.3482 18.0703H71.2259V20.4224H69.1035V10.3996H69.6341L71.2259 11.3352V16.0923H73.3482L74.8341 13.7402H76.8763V14.2749L75.1123 17.0809L76.8763 19.8869V20.4216H74.8341V20.4224Z" fill="#FAFAFA"/>
<path d="M78.8123 13.7411L79.4618 14.1291C79.8951 13.9156 80.355 13.7524 80.8408 13.6413C81.3266 13.5302 81.8529 13.4747 82.4188 13.4747C83.0286 13.4747 83.5437 13.5415 83.9641 13.6751C84.3835 13.8088 84.7358 13.9911 85.0184 14.2228C85.4602 13.9737 85.9245 13.7862 86.4112 13.6613C86.897 13.5363 87.4327 13.4738 88.0159 13.4738C88.7144 13.4738 89.2958 13.5606 89.7601 13.7342C90.2243 13.9078 90.5913 14.1438 90.8609 14.4424C91.1305 14.741 91.3208 15.0951 91.4311 15.5047C91.5414 15.9144 91.5965 16.351 91.5965 16.8144V20.4224H89.4741V17.0818C89.4741 16.8683 89.4655 16.6608 89.4474 16.4603C89.4293 16.2598 89.3742 16.0819 89.282 15.9257C89.189 15.7703 89.0409 15.6453 88.8376 15.5516C88.6343 15.4579 88.3466 15.411 87.9754 15.411C87.6041 15.411 87.2217 15.4396 86.8815 15.4978C86.5412 15.5559 86.2113 15.6427 85.8935 15.7582C85.9374 15.9274 85.9667 16.101 85.9796 16.2789C85.9925 16.4569 85.9994 16.6357 85.9994 16.8136V20.4216H83.8771V17.0809C83.8771 16.8674 83.8685 16.66 83.8504 16.4595C83.8323 16.259 83.7772 16.081 83.685 15.9248C83.592 15.7695 83.4438 15.6445 83.2405 15.5507C83.0373 15.457 82.7496 15.4101 82.3783 15.4101C81.6531 15.4101 80.9941 15.5169 80.4024 15.7313V20.4216H78.28V13.7394H78.8106L78.8123 13.7411Z" fill="#FAFAFA"/>
<path d="M96.9827 20.6898C96.2402 20.6898 95.6252 20.603 95.1394 20.4294C94.6528 20.2558 94.2643 20.0171 93.9723 19.7142C93.6803 19.4113 93.477 19.0572 93.3625 18.6519C93.2479 18.2465 93.1902 17.8126 93.1902 17.3491V16.8144C93.1902 16.351 93.2479 15.917 93.3625 15.5117C93.477 15.1064 93.6812 14.7522 93.9723 14.4493C94.2643 14.1464 94.6528 13.9078 95.1394 13.7342C95.6252 13.5606 96.2402 13.4738 96.9827 13.4738H97.3539C98.105 13.4738 98.72 13.5293 99.1972 13.6404C99.6744 13.7515 100.046 13.9051 100.311 14.1013C100.576 14.2975 100.757 14.5248 100.854 14.7826C100.952 15.0413 101 15.3173 101 15.6115V15.7452C101 16.0125 100.967 16.2659 100.9 16.5072C100.834 16.7476 100.677 16.962 100.429 17.1486C100.181 17.3361 99.8165 17.4828 99.335 17.5895C98.8527 17.6963 98.1963 17.7501 97.3651 17.7501C96.9672 17.7501 96.6003 17.7327 96.2643 17.6963C95.9284 17.6607 95.6097 17.5982 95.3091 17.5088C95.3177 17.6963 95.3487 17.8672 95.4021 18.0235C95.4555 18.1797 95.5546 18.3108 95.7002 18.4175C95.8457 18.5243 96.0516 18.6067 96.3169 18.6649C96.5822 18.723 96.9353 18.7517 97.3781 18.7517C97.59 18.7517 97.8268 18.743 98.0878 18.7248C98.3488 18.7074 98.6184 18.6822 98.8966 18.651C99.1748 18.6197 99.4487 18.5798 99.7192 18.5303C99.9888 18.4817 100.239 18.421 100.469 18.3498V20.3547C100.239 20.4085 99.9888 20.4545 99.7192 20.4953C99.4496 20.5353 99.1705 20.5708 98.8837 20.6021C98.596 20.6333 98.3109 20.6559 98.0284 20.6689C97.745 20.6819 97.4797 20.6889 97.2325 20.6889H96.981L96.9827 20.6898ZM97.3669 15.1437C97.0128 15.1437 96.7174 15.1636 96.4779 15.2036C96.2385 15.2435 96.0447 15.3034 95.8948 15.3841C95.7441 15.4639 95.6295 15.562 95.5503 15.6783C95.471 15.7946 95.4133 15.9283 95.378 16.0793C95.6347 16.1505 95.9103 16.2017 96.2066 16.2329C96.5029 16.2642 96.8457 16.2798 97.2342 16.2798C97.6227 16.2798 97.9285 16.2642 98.149 16.2329C98.3695 16.2017 98.5331 16.1618 98.6399 16.1123C98.7459 16.0637 98.8122 16.0099 98.8389 15.9517C98.8656 15.8936 98.8785 15.8337 98.8785 15.7712C98.8785 15.7087 98.8673 15.6401 98.8449 15.5638C98.8225 15.4883 98.7605 15.4188 98.6589 15.3563C98.5572 15.2938 98.4048 15.2426 98.2015 15.2027C97.9982 15.1628 97.7192 15.1428 97.366 15.1428L97.3669 15.1437Z" fill="#FAFAFA"/>
<path d="M41.076 23.29H40.5032V23.0817H41.8968V23.29H41.3215V24.979H41.076V23.29Z" fill="#FAFAFA"/>
<path d="M43.2517 22.981H43.4972V23.8307H43.5024C43.5411 23.7604 43.6031 23.6987 43.6781 23.6562C43.7504 23.6137 43.8374 23.5859 43.9296 23.5859C44.1113 23.5859 44.4016 23.6987 44.4016 24.1683V24.9789H44.1561V24.1969C44.1561 23.9773 44.0752 23.7916 43.8435 23.7916C43.6841 23.7916 43.5583 23.9044 43.5136 24.039C43.4998 24.0728 43.4972 24.1093 43.4972 24.157V24.9789H43.2517V22.981Z" fill="#FAFAFA"/>
<path d="M46.1112 24.3429C46.1164 24.6779 46.3292 24.8159 46.5746 24.8159C46.7504 24.8159 46.8572 24.7846 46.9493 24.7456L46.9915 24.9226C46.9045 24.9617 46.7573 25.0068 46.5419 25.0068C46.1259 25.0068 45.877 24.7308 45.877 24.3203C45.877 23.9098 46.1173 23.586 46.5109 23.586C46.9519 23.586 47.0691 23.9775 47.0691 24.2274C47.0691 24.2778 47.0639 24.3177 47.0604 24.3429H46.1112ZM46.8322 24.1658C46.8348 24.0078 46.7676 23.7631 46.4911 23.7631C46.2422 23.7631 46.1336 23.994 46.1138 24.1658H46.8313H46.8322Z" fill="#FAFAFA"/>
<path d="M51.2944 24.0894H50.5622V24.7734H51.3779V24.9791H50.3193V23.0826H51.3357V23.2883H50.5622V23.8881H51.2944V24.0903V24.0894Z" fill="#FAFAFA"/>
<path d="M53.6068 24.9791L53.587 24.8072H53.5784C53.5026 24.914 53.3579 25.0094 53.1649 25.0094C52.891 25.0094 52.7515 24.815 52.7515 24.618C52.7515 24.2891 53.0417 24.1085 53.5646 24.1111V24.0834C53.5646 23.9705 53.5336 23.7683 53.2571 23.7683C53.1313 23.7683 53.0004 23.8074 52.9048 23.8698L52.8488 23.7067C52.9608 23.6338 53.1227 23.586 53.2933 23.586C53.7067 23.586 53.8075 23.8707 53.8075 24.1432V24.6527C53.8075 24.7708 53.8126 24.8862 53.8299 24.9791H53.6068ZM53.5706 24.2838C53.3027 24.2778 52.9978 24.3264 52.9978 24.5902C52.9978 24.7508 53.1038 24.8263 53.2295 24.8263C53.4052 24.8263 53.5172 24.7135 53.556 24.598C53.5646 24.5729 53.5697 24.5442 53.5697 24.5191V24.283L53.5706 24.2838Z" fill="#FAFAFA"/>
<path d="M55.3434 24.7256C55.4157 24.7734 55.5441 24.8237 55.6673 24.8237C55.8464 24.8237 55.93 24.7334 55.93 24.6215C55.93 24.5034 55.8602 24.4383 55.6784 24.3706C55.4355 24.2838 55.321 24.1484 55.321 23.9853C55.321 23.7657 55.4967 23.586 55.7878 23.586C55.9248 23.586 56.0445 23.6251 56.1203 23.6702L56.0592 23.8507C56.0058 23.8169 55.9084 23.7718 55.7827 23.7718C55.6371 23.7718 55.5561 23.856 55.5561 23.9575C55.5561 24.0703 55.6371 24.1207 55.8128 24.1884C56.0471 24.2786 56.1677 24.3967 56.1677 24.5989C56.1677 24.8385 55.9834 25.0068 55.6621 25.0068C55.5139 25.0068 55.377 24.9704 55.2822 24.914L55.3434 24.7256Z" fill="#FAFAFA"/>
<path d="M57.9289 23.2345C57.9315 23.3187 57.8704 23.3864 57.7722 23.3864C57.686 23.3864 57.624 23.3187 57.624 23.2345C57.624 23.1503 57.6886 23.08 57.7773 23.08C57.8661 23.08 57.9281 23.1477 57.9281 23.2345H57.9289ZM57.655 24.979V23.6173H57.9005V24.979H57.655Z" fill="#FAFAFA"/>
<path d="M59.6192 24.3429C59.6243 24.6779 59.8371 24.8159 60.0826 24.8159C60.2583 24.8159 60.3642 24.7846 60.4564 24.7456L60.4986 24.9226C60.4116 24.9617 60.2643 25.0068 60.049 25.0068C59.633 25.0068 59.384 24.7308 59.384 24.3203C59.384 23.9098 59.6243 23.586 60.018 23.586C60.459 23.586 60.5761 23.9775 60.5761 24.2274C60.5761 24.2778 60.571 24.3177 60.5675 24.3429H59.6183H59.6192ZM60.3401 24.1658C60.3427 24.0078 60.2755 23.7631 59.999 23.7631C59.7501 23.7631 59.6416 23.994 59.6218 24.1658H60.3393H60.3401Z" fill="#FAFAFA"/>
<path d="M62.0206 24.7256C62.093 24.7734 62.2213 24.8237 62.3445 24.8237C62.5237 24.8237 62.6072 24.7334 62.6072 24.6215C62.6072 24.5034 62.5374 24.4383 62.3557 24.3706C62.1128 24.2838 61.9982 24.1484 61.9982 23.9853C61.9982 23.7657 62.1739 23.586 62.4651 23.586C62.602 23.586 62.7218 23.6251 62.7976 23.6702L62.7364 23.8507C62.683 23.8169 62.5857 23.7718 62.4599 23.7718C62.3143 23.7718 62.2334 23.856 62.2334 23.9575C62.2334 24.0703 62.3143 24.1207 62.4901 24.1884C62.7243 24.2786 62.8449 24.3967 62.8449 24.5989C62.8449 24.8385 62.6606 25.0068 62.3393 25.0068C62.1912 25.0068 62.0542 24.9704 61.9595 24.914L62.0206 24.7256Z" fill="#FAFAFA"/>
<path d="M64.6286 23.2258V23.6173H64.9809V23.8056H64.6286V24.5399C64.6286 24.7091 64.676 24.8046 64.8129 24.8046C64.8775 24.8046 64.9249 24.7959 64.955 24.7881L64.9662 24.9738C64.9189 24.9938 64.8431 25.0077 64.7483 25.0077C64.6338 25.0077 64.5416 24.9712 64.483 24.9035C64.4132 24.8306 64.3883 24.7091 64.3883 24.5486V23.8056H64.179V23.6173H64.3883V23.2909L64.6286 23.2258Z" fill="#FAFAFA"/>
<path d="M68.41 24.9791L67.9329 23.0826H68.1895L68.4126 24.0426C68.4686 24.2786 68.5186 24.5156 68.5522 24.6987H68.5582C68.5892 24.5104 68.6478 24.2847 68.7115 24.04L68.963 23.0835H69.2171L69.4463 24.046C69.4997 24.2708 69.5496 24.4965 69.5772 24.6961H69.5823C69.6211 24.4878 69.6745 24.2769 69.7331 24.0408L69.982 23.0844H70.2309L69.6978 24.9808H69.4437L69.2059 23.9931C69.1474 23.7509 69.1086 23.5652 69.0828 23.3743H69.0767C69.0431 23.5626 69.0009 23.7483 68.9312 23.9931L68.6633 24.9808H68.4092L68.41 24.9791Z" fill="#FAFAFA"/>
<path d="M72.2862 24.9791L72.2664 24.8072H72.2578C72.182 24.914 72.0373 25.0094 71.8444 25.0094C71.5705 25.0094 71.4309 24.815 71.4309 24.618C71.4309 24.2891 71.7212 24.1085 72.244 24.1111V24.0834C72.244 23.9705 72.213 23.7683 71.9365 23.7683C71.8108 23.7683 71.6798 23.8074 71.5842 23.8698L71.5282 23.7067C71.6402 23.6338 71.8022 23.586 71.9727 23.586C72.3861 23.586 72.4869 23.8707 72.4869 24.1432V24.6527C72.4869 24.7708 72.4921 24.8862 72.5093 24.9791H72.2862ZM72.2501 24.2838C71.9822 24.2778 71.6773 24.3264 71.6773 24.5902C71.6773 24.7508 71.7832 24.8263 71.909 24.8263C72.0847 24.8263 72.1966 24.7135 72.2354 24.598C72.244 24.5729 72.2492 24.5442 72.2492 24.5191V24.283L72.2501 24.2838Z" fill="#FAFAFA"/>
<path d="M74.1241 23.6173L74.4204 24.4218C74.4514 24.5121 74.485 24.6189 74.5065 24.7004H74.5125C74.5375 24.6189 74.5659 24.5147 74.5987 24.4158L74.8666 23.6164H75.1267L74.758 24.5876C74.5823 25.0546 74.4617 25.2941 74.2946 25.4399C74.1749 25.5467 74.0543 25.5892 73.9931 25.6005L73.932 25.3922C73.9931 25.3722 74.0741 25.3332 74.1473 25.2715C74.2145 25.2177 74.2981 25.1223 74.354 24.9955C74.3652 24.9704 74.3739 24.9504 74.3739 24.9365C74.3739 24.9226 74.3687 24.9027 74.3575 24.8714L73.8579 23.6164H74.1258L74.1241 23.6173Z" fill="#FAFAFA"/>
<path d="M78.5832 23.2258V23.6173H78.9355V23.8056H78.5832V24.5399C78.5832 24.7091 78.6305 24.8046 78.7675 24.8046C78.8321 24.8046 78.8795 24.7959 78.9096 24.7881L78.9208 24.9738C78.8734 24.9938 78.7976 25.0077 78.7029 25.0077C78.5883 25.0077 78.4962 24.9712 78.4376 24.9035C78.3678 24.8306 78.3429 24.7091 78.3429 24.5486V23.8056H78.1335V23.6173H78.3429V23.2909L78.5832 23.2258Z" fill="#FAFAFA"/>
<path d="M81.5914 24.2864C81.5914 24.7898 81.2452 25.0094 80.9187 25.0094C80.5527 25.0094 80.271 24.7395 80.271 24.309C80.271 23.8534 80.5673 23.586 80.9411 23.586C81.315 23.586 81.5923 23.8707 81.5923 24.2864H81.5914ZM80.5191 24.3003C80.5191 24.5989 80.6896 24.8237 80.9299 24.8237C81.1702 24.8237 81.3408 24.6015 81.3408 24.2943C81.3408 24.0634 81.2262 23.7709 80.936 23.7709C80.6457 23.7709 80.5199 24.0408 80.5199 24.3003H80.5191Z" fill="#FAFAFA"/>
<path d="M84.8479 23.1078C84.9538 23.0852 85.1218 23.0687 85.2924 23.0687C85.5353 23.0687 85.692 23.1113 85.8092 23.2067C85.9065 23.2796 85.9659 23.3925 85.9659 23.5417C85.9659 23.7249 85.8462 23.8854 85.6472 23.9584V23.9644C85.8264 24.0096 86.0357 24.1588 86.0357 24.4401C86.0357 24.6032 85.9711 24.7273 85.8764 24.8202C85.7454 24.9408 85.5327 24.9973 85.226 24.9973C85.0581 24.9973 84.9297 24.986 84.8488 24.9747V23.1086L84.8479 23.1078ZM85.0908 23.8846H85.3113C85.568 23.8846 85.7187 23.7492 85.7187 23.5669C85.7187 23.3447 85.5508 23.2571 85.3053 23.2571C85.1933 23.2571 85.1296 23.2657 85.0899 23.2736V23.8846H85.0908ZM85.0908 24.7933C85.1382 24.802 85.2079 24.8046 85.2949 24.8046C85.5465 24.8046 85.7782 24.7117 85.7782 24.4357C85.7782 24.1771 85.5576 24.0694 85.2924 24.0694H85.0917V24.7924L85.0908 24.7933Z" fill="#FAFAFA"/>
<path d="M88.7604 24.2864C88.7604 24.7898 88.4141 25.0094 88.0877 25.0094C87.7216 25.0094 87.4399 24.7395 87.4399 24.309C87.4399 23.8534 87.7362 23.586 88.1101 23.586C88.4839 23.586 88.7612 23.8707 88.7612 24.2864H88.7604ZM87.688 24.3003C87.688 24.5989 87.8586 24.8237 88.0989 24.8237C88.3392 24.8237 88.5097 24.6015 88.5097 24.2943C88.5097 24.0634 88.3952 23.7709 88.1049 23.7709C87.8146 23.7709 87.6889 24.0408 87.6889 24.3003H87.688Z" fill="#FAFAFA"/>
<path d="M91.4665 24.2864C91.4665 24.7898 91.1202 25.0094 90.7937 25.0094C90.4277 25.0094 90.146 24.7395 90.146 24.309C90.146 23.8534 90.4423 23.586 90.8161 23.586C91.19 23.586 91.4673 23.8707 91.4673 24.2864H91.4665ZM90.3941 24.3003C90.3941 24.5989 90.5646 24.8237 90.8049 24.8237C91.0452 24.8237 91.2158 24.6015 91.2158 24.2943C91.2158 24.0634 91.1012 23.7709 90.811 23.7709C90.5207 23.7709 90.3949 24.0408 90.3949 24.3003H90.3941Z" fill="#FAFAFA"/>
<path d="M93.1919 24.2413H93.1979C93.2315 24.1936 93.2789 24.1345 93.3176 24.0868L93.7139 23.6164H94.0102L93.4882 24.1762L94.0834 24.9782H93.7845L93.3176 24.3255L93.1919 24.4661V24.9782H92.949V22.9802H93.1919V24.2413Z" fill="#FAFAFA"/>
</svg>
