<svg width="86" height="31" viewBox="0 0 86 31" fill="none" xmlns="http://www.w3.org/2000/svg">
<path d="M15.2105 31C23.611 31 30.421 24.0604 30.421 15.5C30.421 6.93959 23.611 0 15.2105 0C6.80998 0 0 6.93959 0 15.5C0 24.0604 6.80998 31 15.2105 31Z" fill="black"/>
<path d="M12.6083 12.9021C13.0623 12.7563 13.5368 12.6442 14.0304 12.565C14.524 12.4858 15.0623 12.4462 15.6468 12.4462C16.7375 12.4462 17.6396 12.5755 18.3539 12.8333C19.0675 13.0912 19.6396 13.4454 20.0679 13.8953C20.4963 14.3453 20.7948 14.8714 20.9635 15.4731C21.1321 16.0755 21.2165 16.7205 21.2165 17.4081V18.2018C21.2165 18.8901 21.1321 19.5351 20.9635 20.1368C20.7948 20.7391 20.4963 21.2653 20.0679 21.7145C19.6396 22.1644 19.0646 22.5187 18.3444 22.7765C17.6234 23.0344 16.7118 23.1637 15.608 23.1637H15.0623C13.9717 23.1637 13.0689 23.0344 12.3552 22.7765C11.6409 22.5187 11.0695 22.1644 10.6412 21.7145C10.2129 21.2646 9.91366 20.7391 9.74571 20.1368C9.57702 19.5351 9.49268 18.8901 9.49268 18.2018V7.8804H10.2716L12.609 9.26979V12.9021H12.6083ZM15.4716 15.3236C14.9259 15.3236 14.4198 15.3602 13.9526 15.4327C13.4854 15.5052 13.0373 15.6151 12.609 15.7601V17.8042C12.609 18.1218 12.6215 18.4327 12.6479 18.7369C12.6735 19.0411 12.7748 19.3057 12.95 19.5306C13.1253 19.7556 13.3945 19.9372 13.7583 20.0762C14.1213 20.2152 14.6472 20.2847 15.3359 20.2847C16.0246 20.2847 16.5563 20.2152 16.9333 20.0762C17.3095 19.9372 17.586 19.7556 17.7613 19.5306C17.9366 19.3057 18.0371 19.0411 18.0635 18.7369C18.0892 18.4327 18.1024 18.1218 18.1024 17.8042C18.1024 17.4865 18.0892 17.1756 18.0635 16.8714C18.0371 16.5672 17.9403 16.3027 17.7716 16.0777C17.6029 15.8527 17.3433 15.6704 16.9927 15.5321C16.6421 15.3931 16.136 15.3236 15.4738 15.3236H15.4716Z" fill="white"/>
<path d="M36.2337 11.867C36.497 11.7825 36.772 11.7175 37.058 11.6712C37.3441 11.6248 37.6565 11.6024 37.9954 11.6024C38.6276 11.6024 39.1512 11.6771 39.5649 11.8266C39.9785 11.9761 40.3101 12.1816 40.5587 12.4425C40.8073 12.7033 40.9804 13.0082 41.078 13.3573C41.1755 13.7063 41.2246 14.0807 41.2246 14.4791V14.9395C41.2246 15.3386 41.1755 15.7123 41.078 16.0613C40.9797 16.4103 40.8066 16.7153 40.5587 16.9761C40.3101 17.2369 39.9771 17.4425 39.559 17.5919C39.141 17.7414 38.6122 17.8162 37.9726 17.8162H37.6565C37.0243 17.8162 36.5006 17.7414 36.087 17.5919C35.6726 17.4425 35.3418 17.2369 35.0932 16.9761C34.8446 16.7153 34.6715 16.4103 34.5739 16.0613C34.4764 15.7123 34.4272 15.3386 34.4272 14.9395V8.95517H34.879L36.2344 9.76085V11.867H36.2337ZM37.8934 13.2713C37.5773 13.2713 37.2839 13.2922 37.0126 13.3348C36.7412 13.3774 36.4816 13.4402 36.2337 13.5247V14.71C36.2337 14.8939 36.241 15.0748 36.2564 15.2511C36.2711 15.4275 36.3298 15.5815 36.4317 15.7115C36.5336 15.8423 36.6891 15.9477 36.9004 16.0277C37.1109 16.1084 37.416 16.1487 37.8149 16.1487C38.2139 16.1487 38.5227 16.1084 38.7413 16.0277C38.9598 15.9469 39.1197 15.8416 39.2209 15.7115C39.3229 15.5815 39.3808 15.4275 39.3962 15.2511C39.4109 15.0748 39.4189 14.8946 39.4189 14.71C39.4189 14.5254 39.4116 14.3453 39.3962 14.1689C39.3808 13.9925 39.3243 13.8393 39.2268 13.7085C39.1292 13.5785 38.9782 13.4724 38.775 13.3924C38.5718 13.3117 38.2785 13.2713 37.8941 13.2713H37.8934Z" fill="black"/>
<path d="M42.5806 14.4791C42.5806 14.08 42.6297 13.7063 42.7273 13.3573C42.8248 13.0083 42.9986 12.7033 43.2465 12.4425C43.4951 12.1817 43.8259 11.9761 44.2403 11.8267C44.654 11.6772 45.1776 11.6024 45.8098 11.6024H46.1259C46.7582 11.6024 47.2818 11.6772 47.6955 11.8267C48.1091 11.9761 48.4406 12.1817 48.6893 12.4425C48.9379 12.7033 49.111 13.0083 49.2085 13.3573C49.3061 13.7063 49.3552 14.0808 49.3552 14.4791V14.9395C49.3552 15.3386 49.3061 15.7123 49.2085 16.0613C49.111 16.4104 48.9372 16.7153 48.6893 16.9761C48.4406 17.237 48.1091 17.4425 47.6955 17.592C47.2811 17.7415 46.7582 17.8162 46.1259 17.8162H45.8098C45.1776 17.8162 44.654 17.7415 44.2403 17.592C43.8259 17.4425 43.4951 17.237 43.2465 16.9761C42.9979 16.7153 42.8248 16.4104 42.7273 16.0613C42.6297 15.7123 42.5806 15.3386 42.5806 14.9395V14.4791ZM44.3877 14.7093C44.3877 14.8932 44.3951 15.074 44.4105 15.2504C44.4251 15.4268 44.4838 15.5808 44.5857 15.7108C44.6877 15.8416 44.8432 15.947 45.0544 16.027C45.2649 16.1077 45.57 16.148 45.969 16.148C46.368 16.148 46.6635 16.1077 46.8784 16.027C47.0926 15.9462 47.251 15.8409 47.353 15.7108C47.4549 15.5808 47.5129 15.4268 47.5283 15.2504C47.5429 15.074 47.551 14.8939 47.551 14.7093C47.551 14.5247 47.5437 14.3446 47.5283 14.1682C47.5129 13.9918 47.4549 13.8386 47.353 13.7078C47.251 13.5778 47.0933 13.4717 46.8784 13.3917C46.6635 13.311 46.3606 13.2706 45.969 13.2706C45.5773 13.2706 45.2649 13.311 45.0544 13.3917C44.8432 13.4724 44.6877 13.5778 44.5857 13.7078C44.4838 13.8386 44.4259 13.9918 44.4105 14.1682C44.3951 14.3446 44.3877 14.5247 44.3877 14.7093Z" fill="black"/>
<path d="M50.7104 14.4791C50.7104 14.08 50.7596 13.7063 50.8571 13.3573C50.9547 13.0083 51.1285 12.7033 51.3764 12.4425C51.625 12.1817 51.9558 11.9761 52.3702 11.8267C52.7838 11.6772 53.3075 11.6024 53.9397 11.6024H54.2558C54.888 11.6024 55.4117 11.6772 55.8254 11.8267C56.239 11.9761 56.5705 12.1817 56.8192 12.4425C57.0678 12.7033 57.2409 13.0083 57.3384 13.3573C57.436 13.7063 57.4851 14.0808 57.4851 14.4791V14.9395C57.4851 15.3386 57.436 15.7123 57.3384 16.0613C57.2409 16.4104 57.0671 16.7153 56.8192 16.9761C56.5705 17.237 56.239 17.4425 55.8254 17.592C55.411 17.7415 54.888 17.8162 54.2558 17.8162H53.9397C53.3075 17.8162 52.7838 17.7415 52.3702 17.592C51.9558 17.4425 51.625 17.237 51.3764 16.9761C51.1278 16.7153 50.9547 16.4104 50.8571 16.0613C50.7596 15.7123 50.7104 15.3386 50.7104 14.9395V14.4791ZM52.5176 14.7093C52.5176 14.8932 52.5249 15.074 52.5403 15.2504C52.555 15.4268 52.6137 15.5808 52.7156 15.7108C52.8176 15.8416 52.9731 15.947 53.1843 16.027C53.3948 16.1077 53.6999 16.148 54.0989 16.148C54.4979 16.148 54.7934 16.1077 55.0083 16.027C55.2225 15.9462 55.3809 15.8409 55.4828 15.7108C55.5848 15.5808 55.6427 15.4268 55.6581 15.2504C55.6728 15.074 55.6809 14.8939 55.6809 14.7093C55.6809 14.5247 55.6735 14.3446 55.6581 14.1682C55.6427 13.9918 55.5848 13.8386 55.4828 13.7078C55.3809 13.5778 55.2232 13.4717 55.0083 13.3917C54.7934 13.311 54.4905 13.2706 54.0989 13.2706C53.7072 13.2706 53.3948 13.311 53.1843 13.3917C52.9731 13.4724 52.8176 13.5778 52.7156 13.7078C52.6137 13.8386 52.5557 13.9918 52.5403 14.1682C52.5249 14.3446 52.5176 14.5247 52.5176 14.7093Z" fill="black"/>
<path d="M63.7201 17.586L62.4549 15.5606H60.6477V17.586H58.8406V8.95517H59.2924L60.6477 9.76085V13.8573H62.4549L63.7201 11.8319H65.459V12.2922L63.957 14.7085L65.459 17.1248V17.5852H63.7201V17.586Z" fill="black"/>
<path d="M67.1076 11.8326L67.6606 12.1667C68.0295 11.9829 68.4211 11.8424 68.8348 11.7467C69.2484 11.651 69.6965 11.6032 70.1784 11.6032C70.6977 11.6032 71.1363 11.6607 71.4942 11.7758C71.8513 11.8909 72.1513 12.0479 72.3919 12.2474C72.7681 12.0329 73.1634 11.8715 73.5778 11.7639C73.9915 11.6563 74.4477 11.6024 74.9442 11.6024C75.539 11.6024 76.0341 11.6772 76.4294 11.8267C76.8247 11.9761 77.1371 12.1794 77.3667 12.4365C77.5963 12.6936 77.7584 12.9986 77.8522 13.3513C77.9461 13.7041 77.9931 14.08 77.9931 14.4791V17.586H76.1859V14.7093C76.1859 14.5255 76.1786 14.3468 76.1632 14.1742C76.1478 14.0015 76.1008 13.8483 76.0223 13.7138C75.9431 13.58 75.817 13.4724 75.6439 13.3917C75.4708 13.311 75.2258 13.2706 74.9097 13.2706C74.5936 13.2706 74.268 13.2953 73.9783 13.3453C73.6886 13.3954 73.4077 13.4702 73.137 13.5696C73.1745 13.7153 73.1994 13.8648 73.2104 14.018C73.2214 14.1712 73.2273 14.3252 73.2273 14.4784V17.5853H71.4201V14.7086C71.4201 14.5247 71.4128 14.3461 71.3974 14.1734C71.382 14.0008 71.335 13.8476 71.2565 13.7131C71.1773 13.5793 71.0512 13.4717 70.8781 13.3909C70.705 13.3102 70.46 13.2699 70.1439 13.2699C69.5264 13.2699 68.9653 13.3618 68.4615 13.5464V17.5853H66.6543V11.8311H67.1061L67.1076 11.8326Z" fill="black"/>
<path d="M82.5794 17.8162C81.9472 17.8162 81.4235 17.7415 81.0098 17.592C80.5955 17.4425 80.2647 17.237 80.016 16.9761C79.7674 16.7153 79.5943 16.4104 79.4968 16.0613C79.3992 15.7123 79.3501 15.3386 79.3501 14.9395V14.4791C79.3501 14.08 79.3992 13.7063 79.4968 13.3573C79.5943 13.0083 79.7681 12.7033 80.016 12.4425C80.2647 12.1817 80.5955 11.9761 81.0098 11.8267C81.4235 11.6772 81.9472 11.6024 82.5794 11.6024H82.8955C83.535 11.6024 84.0587 11.6503 84.465 11.7459C84.8713 11.8416 85.1874 11.9739 85.4133 12.1428C85.6392 12.3117 85.7932 12.5075 85.8761 12.7295C85.959 12.9522 86.0001 13.1899 86.0001 13.4433V13.5584C86.0001 13.7885 85.9722 14.0068 85.915 14.2146C85.8585 14.4216 85.725 14.6062 85.5138 14.7669C85.3026 14.9283 84.9923 15.0546 84.5824 15.1465C84.1716 15.2385 83.6128 15.2848 82.905 15.2848C82.5662 15.2848 82.2537 15.2699 81.9677 15.2385C81.6817 15.2078 81.4103 15.154 81.1543 15.077C81.1617 15.2385 81.1881 15.3857 81.2335 15.5202C81.279 15.6548 81.3634 15.7676 81.4873 15.8595C81.6112 15.9515 81.7865 16.0225 82.0124 16.0726C82.2383 16.1226 82.539 16.1473 82.916 16.1473C83.0964 16.1473 83.2981 16.1398 83.5204 16.1241C83.7426 16.1092 83.9721 16.0875 84.209 16.0606C84.4459 16.0337 84.6792 15.9993 84.9095 15.9567C85.139 15.9149 85.3517 15.8625 85.5475 15.8013V17.5277C85.3517 17.574 85.139 17.6137 84.9095 17.6488C84.6799 17.6832 84.4423 17.7138 84.198 17.7407C83.9531 17.7676 83.7103 17.7871 83.4697 17.7983C83.2284 17.8095 83.0026 17.8155 82.7921 17.8155H82.5779L82.5794 17.8162ZM82.9065 13.0404C82.605 13.0404 82.3535 13.0576 82.1496 13.092C81.9457 13.1264 81.7807 13.1779 81.6531 13.2474C81.5247 13.3162 81.4272 13.4007 81.3597 13.5008C81.2922 13.601 81.2431 13.716 81.213 13.8461C81.4316 13.9074 81.6663 13.9515 81.9186 13.9784C82.1709 14.0053 82.4628 14.0187 82.7935 14.0187C83.1243 14.0187 83.3847 14.0053 83.5724 13.9784C83.7602 13.9515 83.8995 13.9171 83.9905 13.8745C84.0807 13.8326 84.1372 13.7863 84.1599 13.7362C84.1826 13.6862 84.1936 13.6346 84.1936 13.5808C84.1936 13.527 84.1841 13.4679 84.165 13.4021C84.146 13.3371 84.0932 13.2773 84.0066 13.2235C83.9201 13.1697 83.7903 13.1256 83.6172 13.0912C83.4441 13.0569 83.2064 13.0397 82.9057 13.0397L82.9065 13.0404Z" fill="black"/>
<path d="M34.9755 20.0553H34.4878V19.8759H35.6745V20.0553H35.1845V21.5097H34.9755V20.0553Z" fill="black"/>
<path d="M36.8281 19.7897H37.0371V20.5214H37.0415C37.0746 20.4609 37.1274 20.4078 37.1912 20.3712C37.2528 20.3345 37.3269 20.3106 37.4053 20.3106C37.5601 20.3106 37.8072 20.4078 37.8072 20.8121V21.5102H37.5982V20.8368C37.5982 20.6477 37.5293 20.4878 37.332 20.4878C37.1963 20.4878 37.0892 20.5849 37.0511 20.7008C37.0393 20.7299 37.0371 20.7613 37.0371 20.8024V21.5102H36.8281V19.7897Z" fill="black"/>
<path d="M39.263 20.9619C39.2674 21.2504 39.4485 21.3692 39.6575 21.3692C39.8072 21.3692 39.8981 21.3423 39.9766 21.3087L40.0125 21.4612C39.9385 21.4948 39.813 21.5336 39.6297 21.5336C39.2754 21.5336 39.0635 21.296 39.0635 20.9425C39.0635 20.589 39.2681 20.3102 39.6033 20.3102C39.9788 20.3102 40.0785 20.6473 40.0785 20.8625C40.0785 20.9058 40.0741 20.9402 40.0712 20.9619H39.263ZM39.8768 20.8094C39.879 20.6734 39.8218 20.4626 39.5864 20.4626C39.3744 20.4626 39.282 20.6615 39.2652 20.8094H39.8761H39.8768Z" fill="black"/>
<path d="M43.6764 20.7437H43.053V21.3326H43.7476V21.5097H42.8462V19.8767H43.7116V20.0538H43.053V20.5703H43.6764V20.7444V20.7437Z" fill="black"/>
<path d="M45.6453 21.5097L45.6284 21.3618H45.6211C45.5565 21.4537 45.4333 21.5359 45.269 21.5359C45.0358 21.5359 44.917 21.3685 44.917 21.1988C44.917 20.9156 45.1642 20.7601 45.6093 20.7623V20.7384C45.6093 20.6413 45.5829 20.4671 45.3475 20.4671C45.2404 20.4671 45.129 20.5008 45.0475 20.5546L44.9999 20.4141C45.0952 20.3513 45.2331 20.3102 45.3783 20.3102C45.7304 20.3102 45.8162 20.5553 45.8162 20.79V21.2287C45.8162 21.3304 45.8206 21.4298 45.8352 21.5097H45.6453ZM45.6145 20.9111C45.3864 20.9058 45.1268 20.9477 45.1268 21.1749C45.1268 21.3132 45.217 21.3782 45.324 21.3782C45.4737 21.3782 45.569 21.281 45.602 21.1816C45.6093 21.16 45.6137 21.1353 45.6137 21.1136V20.9103L45.6145 20.9111Z" fill="black"/>
<path d="M47.1241 21.2915C47.1857 21.3326 47.295 21.376 47.3999 21.376C47.5524 21.376 47.6236 21.2982 47.6236 21.2018C47.6236 21.1002 47.5641 21.0441 47.4094 20.9858C47.2026 20.9111 47.105 20.7945 47.105 20.654C47.105 20.4649 47.2546 20.3102 47.5025 20.3102C47.6192 20.3102 47.7211 20.3438 47.7856 20.3827L47.7336 20.5381C47.6881 20.509 47.6052 20.4701 47.4981 20.4701C47.3742 20.4701 47.3053 20.5426 47.3053 20.6301C47.3053 20.7272 47.3742 20.7706 47.5238 20.8289C47.7233 20.9066 47.826 21.0082 47.826 21.1824C47.826 21.3887 47.669 21.5336 47.3955 21.5336C47.2693 21.5336 47.1527 21.5023 47.072 21.4537L47.1241 21.2915Z" fill="black"/>
<path d="M49.3255 20.0075C49.3277 20.08 49.2757 20.1382 49.1921 20.1382C49.1187 20.1382 49.0659 20.08 49.0659 20.0075C49.0659 19.935 49.1209 19.8744 49.1965 19.8744C49.272 19.8744 49.3248 19.9327 49.3248 20.0075H49.3255ZM49.0923 21.5097V20.337H49.3013V21.5097H49.0923Z" fill="black"/>
<path d="M50.7649 20.9619C50.7693 21.2504 50.9505 21.3692 51.1595 21.3692C51.3091 21.3692 51.3993 21.3423 51.4778 21.3087L51.5138 21.4612C51.4397 21.4948 51.3143 21.5336 51.1309 21.5336C50.7767 21.5336 50.5647 21.296 50.5647 20.9425C50.5647 20.589 50.7693 20.3102 51.1045 20.3102C51.48 20.3102 51.5798 20.6473 51.5798 20.8625C51.5798 20.9058 51.5754 20.9402 51.5724 20.9619H50.7642H50.7649ZM51.3788 20.8094C51.381 20.6734 51.3238 20.4626 51.0884 20.4626C50.8764 20.4626 50.784 20.6615 50.7671 20.8094H51.3781H51.3788Z" fill="black"/>
<path d="M52.8096 21.2915C52.8712 21.3326 52.9805 21.376 53.0854 21.376C53.238 21.376 53.3091 21.2982 53.3091 21.2018C53.3091 21.1002 53.2497 21.0441 53.0949 20.9858C52.8881 20.9111 52.7906 20.7945 52.7906 20.654C52.7906 20.4649 52.9402 20.3102 53.1881 20.3102C53.3047 20.3102 53.4066 20.3438 53.4712 20.3827L53.4191 20.5381C53.3736 20.509 53.2908 20.4701 53.1837 20.4701C53.0597 20.4701 52.9908 20.5426 52.9908 20.6301C52.9908 20.7272 53.0597 20.7706 53.2094 20.8289C53.4088 20.9066 53.5115 21.0082 53.5115 21.1824C53.5115 21.3887 53.3546 21.5336 53.081 21.5336C52.9549 21.5336 52.8382 21.5023 52.7576 21.4537L52.8096 21.2915Z" fill="black"/>
<path d="M55.0303 20V20.3371H55.3303V20.4993H55.0303V21.1316C55.0303 21.2773 55.0707 21.3595 55.1873 21.3595C55.2423 21.3595 55.2826 21.352 55.3083 21.3453L55.3178 21.5053C55.2775 21.5225 55.2129 21.5344 55.1323 21.5344C55.0347 21.5344 54.9562 21.503 54.9064 21.4447C54.847 21.3819 54.8257 21.2773 54.8257 21.139V20.4993H54.6475V20.3371H54.8257V20.0561L55.0303 20Z" fill="black"/>
<path d="M58.2501 21.5097L57.8438 19.8767H58.0623L58.2523 20.7033C58.2999 20.9066 58.3425 21.1106 58.3711 21.2683H58.3762C58.4026 21.1062 58.4525 20.9118 58.5068 20.7011L58.7209 19.8775H58.9373L59.1324 20.7063C59.1779 20.8999 59.2204 21.0942 59.2439 21.2661H59.2483C59.2813 21.0867 59.3267 20.9051 59.3766 20.7018L59.5886 19.8782H59.8005L59.3465 21.5112H59.1302L58.9278 20.6607C58.8779 20.4522 58.8449 20.2923 58.8229 20.1278H58.8177C58.7891 20.29 58.7532 20.45 58.6938 20.6607L58.4657 21.5112H58.2493L58.2501 21.5097Z" fill="black"/>
<path d="M61.5506 21.5097L61.5337 21.3618H61.5264C61.4618 21.4537 61.3386 21.5359 61.1743 21.5359C60.9411 21.5359 60.8223 21.3685 60.8223 21.1988C60.8223 20.9156 61.0694 20.7601 61.5146 20.7623V20.7384C61.5146 20.6413 61.4882 20.4671 61.2528 20.4671C61.1457 20.4671 61.0342 20.5008 60.9528 20.5546L60.9051 20.4141C61.0005 20.3513 61.1384 20.3102 61.2836 20.3102C61.6356 20.3102 61.7214 20.5553 61.7214 20.79V21.2287C61.7214 21.3304 61.7258 21.4298 61.7405 21.5097H61.5506ZM61.5198 20.9111C61.2917 20.9058 61.032 20.9477 61.032 21.1749C61.032 21.3132 61.1222 21.3782 61.2293 21.3782C61.3789 21.3782 61.4743 21.281 61.5073 21.1816C61.5146 21.16 61.519 21.1353 61.519 21.1136V20.9103L61.5198 20.9111Z" fill="black"/>
<path d="M63.1155 20.3371L63.3678 21.0299C63.3942 21.1076 63.4229 21.1996 63.4412 21.2698H63.4463C63.4676 21.1996 63.4918 21.1099 63.5197 21.0247L63.7478 20.3363H63.9693L63.6553 21.1727C63.5057 21.5748 63.403 21.781 63.2608 21.9066C63.1588 21.9985 63.0561 22.0351 63.0041 22.0449L62.952 21.8655C63.0041 21.8483 63.073 21.8147 63.1354 21.7616C63.1926 21.7153 63.2637 21.633 63.3114 21.5239C63.3209 21.5023 63.3282 21.4851 63.3282 21.4731C63.3282 21.4611 63.3238 21.444 63.3143 21.4171L62.8889 20.3363H63.117L63.1155 20.3371Z" fill="black"/>
<path d="M66.9124 20V20.3371H67.2124V20.4993H66.9124V21.1316C66.9124 21.2773 66.9527 21.3595 67.0693 21.3595C67.1243 21.3595 67.1647 21.352 67.1904 21.3453L67.1999 21.5053C67.1596 21.5225 67.095 21.5344 67.0143 21.5344C66.9168 21.5344 66.8383 21.503 66.7884 21.4447C66.729 21.3819 66.7078 21.2773 66.7078 21.139V20.4993H66.5295V20.3371H66.7078V20.0561L66.9124 20Z" fill="black"/>
<path d="M69.474 20.9133C69.474 21.3468 69.1791 21.5359 68.9011 21.5359C68.5894 21.5359 68.3496 21.3035 68.3496 20.9328C68.3496 20.5404 68.6019 20.3102 68.9202 20.3102C69.2385 20.3102 69.4747 20.5553 69.4747 20.9133H69.474ZM68.5608 20.9253C68.5608 21.1824 68.7061 21.376 68.9107 21.376C69.1153 21.376 69.2605 21.1846 69.2605 20.92C69.2605 20.7212 69.163 20.4694 68.9158 20.4694C68.6687 20.4694 68.5616 20.7018 68.5616 20.9253H68.5608Z" fill="black"/>
<path d="M72.2468 19.8984C72.337 19.8789 72.4801 19.8647 72.6253 19.8647C72.8321 19.8647 72.9656 19.9014 73.0653 19.9836C73.1482 20.0464 73.1988 20.1435 73.1988 20.2721C73.1988 20.4298 73.0969 20.568 72.9274 20.6308V20.636C73.08 20.6749 73.2582 20.8035 73.2582 21.0456C73.2582 21.1861 73.2032 21.293 73.1225 21.373C73.0111 21.4769 72.8299 21.5254 72.5688 21.5254C72.4258 21.5254 72.3165 21.5157 72.2476 21.506V19.8991L72.2468 19.8984ZM72.4537 20.5673H72.6414C72.86 20.5673 72.9883 20.4507 72.9883 20.2937C72.9883 20.1024 72.8453 20.0269 72.6363 20.0269C72.5409 20.0269 72.4867 20.0344 72.4529 20.0411V20.5673H72.4537ZM72.4537 21.3498C72.494 21.3573 72.5534 21.3595 72.6275 21.3595C72.8416 21.3595 73.0389 21.2795 73.0389 21.0419C73.0389 20.8192 72.8512 20.7265 72.6253 20.7265H72.4544V21.3491L72.4537 21.3498Z" fill="black"/>
<path d="M75.5782 20.9133C75.5782 21.3468 75.2834 21.5359 75.0054 21.5359C74.6937 21.5359 74.4539 21.3035 74.4539 20.9328C74.4539 20.5404 74.7062 20.3102 75.0245 20.3102C75.3428 20.3102 75.5789 20.5553 75.5789 20.9133H75.5782ZM74.6651 20.9253C74.6651 21.1824 74.8103 21.376 75.0149 21.376C75.2196 21.376 75.3648 21.1846 75.3648 20.92C75.3648 20.7212 75.2672 20.4694 75.0201 20.4694C74.7729 20.4694 74.6658 20.7018 74.6658 20.9253H74.6651Z" fill="black"/>
<path d="M77.8824 20.9133C77.8824 21.3468 77.5876 21.5359 77.3096 21.5359C76.9979 21.5359 76.7581 21.3035 76.7581 20.9328C76.7581 20.5404 77.0104 20.3102 77.3287 20.3102C77.647 20.3102 77.8831 20.5553 77.8831 20.9133H77.8824ZM76.9693 20.9253C76.9693 21.1824 77.1145 21.376 77.3191 21.376C77.5238 21.376 77.669 21.1846 77.669 20.92C77.669 20.7212 77.5714 20.4694 77.3243 20.4694C77.0771 20.4694 76.97 20.7018 76.97 20.9253H76.9693Z" fill="black"/>
<path d="M79.3516 20.8745H79.3567C79.3853 20.8334 79.4257 20.7825 79.4587 20.7414L79.7961 20.3363H80.0484L79.6039 20.8184L80.1107 21.509H79.8562L79.4587 20.947L79.3516 21.068V21.509H79.1448V19.7885H79.3516V20.8745Z" fill="black"/>
</svg>
