<svg width="86" height="31" viewBox="0 0 86 31" fill="none" xmlns="http://www.w3.org/2000/svg">
<g clip-path="url(#clip0_2001_3)">
<path d="M15.2104 30.9993C23.6108 30.9993 30.4208 24.0598 30.4208 15.4996C30.4208 6.93942 23.6108 0 15.2104 0C6.80992 0 0 6.93942 0 15.4996C0 24.0598 6.80992 30.9993 15.2104 30.9993Z" fill="#292929"/>
<path d="M12.6082 12.9018C13.0622 12.756 13.5367 12.6439 14.0303 12.5647C14.5239 12.4855 15.0623 12.4459 15.6468 12.4459C16.7374 12.4459 17.6395 12.5752 18.3538 12.833C19.0675 13.0909 19.6395 13.4451 20.0678 13.895C20.4962 14.3449 20.7947 14.8711 20.9634 15.4727C21.132 16.0751 21.2164 16.7201 21.2164 17.4076V18.2013C21.2164 18.8897 21.132 19.5346 20.9634 20.1363C20.7947 20.7387 20.4962 21.2648 20.0678 21.714C19.6395 22.1639 19.0645 22.5181 18.3443 22.776C17.6234 23.0338 16.7117 23.1631 15.6079 23.1631H15.0623C13.9717 23.1631 13.0688 23.0338 12.3552 22.776C11.6409 22.5181 11.0695 22.1639 10.6412 21.714C10.2129 21.2641 9.91366 20.7387 9.74571 20.1363C9.57702 19.5346 9.49268 18.8897 9.49268 18.2013V7.88022H10.2716L12.609 9.26957V12.9018H12.6082ZM15.4715 15.3232C14.9258 15.3232 14.4198 15.3599 13.9526 15.4324C13.4854 15.5048 13.0373 15.6147 12.609 15.7597V17.8037C12.609 18.1214 12.6214 18.4323 12.6478 18.7365C12.6735 19.0406 12.7747 19.3052 12.95 19.5302C13.1253 19.7551 13.3945 19.9367 13.7582 20.0757C14.1213 20.2147 14.6471 20.2843 15.3358 20.2843C16.0245 20.2843 16.5562 20.2147 16.9332 20.0757C17.3095 19.9367 17.586 19.7551 17.7612 19.5302C17.9365 19.3052 18.037 19.0406 18.0634 18.7365C18.0891 18.4323 18.1023 18.1214 18.1023 17.8037C18.1023 17.4861 18.0891 17.1752 18.0634 16.871C18.037 16.5669 17.9402 16.3023 17.7715 16.0773C17.6028 15.8524 17.3432 15.67 16.9926 15.5318C16.642 15.3927 16.136 15.3232 15.4737 15.3232H15.4715Z" fill="white"/>
<path d="M36.2332 11.8667C36.4965 11.7822 36.7715 11.7172 37.0575 11.6709C37.3436 11.6245 37.656 11.6021 37.9948 11.6021C38.627 11.6021 39.1507 11.6769 39.5644 11.8263C39.978 11.9758 40.3095 12.1813 40.5581 12.4422C40.8068 12.703 40.9799 13.0079 41.0774 13.3569C41.1749 13.706 41.2241 14.0804 41.2241 14.4787V14.9391C41.2241 15.3382 41.1749 15.7119 41.0774 16.0609C40.9791 16.4099 40.806 16.7149 40.5581 16.9757C40.3095 17.2365 39.9765 17.442 39.5585 17.5915C39.1404 17.741 38.6116 17.8157 37.9721 17.8157H37.656C37.0238 17.8157 36.5001 17.741 36.0865 17.5915C35.6721 17.442 35.3413 17.2365 35.0927 16.9757C34.8441 16.7149 34.671 16.4099 34.5734 16.0609C34.4759 15.7119 34.4268 15.3382 34.4268 14.9391V8.95496H34.8785L36.2339 9.76062V11.8667H36.2332ZM37.8929 13.271C37.5768 13.271 37.2834 13.2919 37.0121 13.3345C36.7407 13.3771 36.4811 13.4399 36.2332 13.5244V14.7097C36.2332 14.8935 36.2405 15.0744 36.2559 15.2508C36.2706 15.4271 36.3292 15.5811 36.4312 15.7111C36.5331 15.8419 36.6886 15.9473 36.8998 16.0273C37.1103 16.108 37.4154 16.1484 37.8144 16.1484C38.2134 16.1484 38.5222 16.108 38.7407 16.0273C38.9593 15.9466 39.1192 15.8412 39.2204 15.7111C39.3223 15.5811 39.3803 15.4271 39.3957 15.2508C39.4103 15.0744 39.4184 14.8943 39.4184 14.7097C39.4184 14.5251 39.4111 14.345 39.3957 14.1686C39.3803 13.9922 39.3238 13.839 39.2263 13.7082C39.1287 13.5782 38.9776 13.472 38.7745 13.3921C38.5713 13.3114 38.2779 13.271 37.8936 13.271H37.8929Z" fill="#292929"/>
<path d="M42.5801 14.4788C42.5801 14.0797 42.6292 13.706 42.7268 13.357C42.8243 13.0079 42.9981 12.703 43.246 12.4422C43.4947 12.1814 43.8254 11.9758 44.2398 11.8264C44.6535 11.6769 45.1771 11.6021 45.8093 11.6021H46.1254C46.7576 11.6021 47.2813 11.6769 47.6949 11.8264C48.1086 11.9758 48.4401 12.1814 48.6887 12.4422C48.9374 12.703 49.1104 13.0079 49.208 13.357C49.3055 13.706 49.3547 14.0804 49.3547 14.4788V14.9391C49.3547 15.3382 49.3055 15.7119 49.208 16.0609C49.1104 16.4099 48.9366 16.7149 48.6887 16.9757C48.4401 17.2365 48.1086 17.4421 47.6949 17.5915C47.2806 17.741 46.7576 17.8157 46.1254 17.8157H45.8093C45.1771 17.8157 44.6535 17.741 44.2398 17.5915C43.8254 17.4421 43.4947 17.2365 43.246 16.9757C42.9974 16.7149 42.8243 16.4099 42.7268 16.0609C42.6292 15.7119 42.5801 15.3382 42.5801 14.9391V14.4788ZM44.3872 14.7089C44.3872 14.8928 44.3946 15.0737 44.41 15.25C44.4246 15.4264 44.4833 15.5804 44.5852 15.7104C44.6872 15.8412 44.8427 15.9466 45.0539 16.0265C45.2644 16.1073 45.5695 16.1476 45.9685 16.1476C46.3675 16.1476 46.663 16.1073 46.8779 16.0265C47.0921 15.9458 47.2505 15.8405 47.3524 15.7104C47.4544 15.5804 47.5123 15.4264 47.5277 15.25C47.5424 15.0737 47.5505 14.8935 47.5505 14.7089C47.5505 14.5243 47.5431 14.3442 47.5277 14.1679C47.5123 13.9915 47.4544 13.8383 47.3524 13.7075C47.2505 13.5774 47.0928 13.4713 46.8779 13.3913C46.663 13.3106 46.3601 13.2703 45.9685 13.2703C45.5768 13.2703 45.2644 13.3106 45.0539 13.3913C44.8427 13.4721 44.6872 13.5774 44.5852 13.7075C44.4833 13.8383 44.4254 13.9915 44.41 14.1679C44.3946 14.3442 44.3872 14.5243 44.3872 14.7089Z" fill="#292929"/>
<path d="M50.7102 14.4788C50.7102 14.0797 50.7593 13.706 50.8569 13.357C50.9544 13.0079 51.1283 12.703 51.3762 12.4422C51.6248 12.1814 51.9556 11.9758 52.3699 11.8264C52.7836 11.6769 53.3072 11.6021 53.9395 11.6021H54.2556C54.8878 11.6021 55.4114 11.6769 55.8251 11.8264C56.2387 11.9758 56.5702 12.1814 56.8189 12.4422C57.0675 12.703 57.2406 13.0079 57.3381 13.357C57.4357 13.706 57.4848 14.0804 57.4848 14.4788V14.9391C57.4848 15.3382 57.4357 15.7119 57.3381 16.0609C57.2406 16.4099 57.0668 16.7149 56.8189 16.9757C56.5702 17.2365 56.2387 17.4421 55.8251 17.5915C55.4107 17.741 54.8878 17.8157 54.2556 17.8157H53.9395C53.3072 17.8157 52.7836 17.741 52.3699 17.5915C51.9556 17.4421 51.6248 17.2365 51.3762 16.9757C51.1275 16.7149 50.9544 16.4099 50.8569 16.0609C50.7593 15.7119 50.7102 15.3382 50.7102 14.9391V14.4788ZM52.5174 14.7089C52.5174 14.8928 52.5247 15.0737 52.5401 15.25C52.5548 15.4264 52.6134 15.5804 52.7154 15.7104C52.8173 15.8412 52.9728 15.9466 53.184 16.0265C53.3945 16.1073 53.6996 16.1476 54.0986 16.1476C54.4976 16.1476 54.7932 16.1073 55.008 16.0265C55.2222 15.9458 55.3806 15.8405 55.4826 15.7104C55.5845 15.5804 55.6425 15.4264 55.6579 15.25C55.6725 15.0737 55.6806 14.8935 55.6806 14.7089C55.6806 14.5243 55.6733 14.3442 55.6579 14.1679C55.6425 13.9915 55.5845 13.8383 55.4826 13.7075C55.3806 13.5774 55.2229 13.4713 55.008 13.3913C54.7932 13.3106 54.4902 13.2703 54.0986 13.2703C53.707 13.2703 53.3945 13.3106 53.184 13.3913C52.9728 13.4721 52.8173 13.5774 52.7154 13.7075C52.6134 13.8383 52.5555 13.9915 52.5401 14.1679C52.5247 14.3442 52.5174 14.5243 52.5174 14.7089Z" fill="#292929"/>
<path d="M63.7195 17.5855L62.4544 15.5602H60.6472V17.5855H58.8401V8.95496H59.2919L60.6472 9.76062V13.8569H62.4544L63.7195 11.8316H65.4585V12.2919L63.9564 14.7082L65.4585 17.1244V17.5848H63.7195V17.5855Z" fill="#292929"/>
<path d="M67.1071 11.8323L67.6601 12.1664C68.029 11.9826 68.4206 11.842 68.8343 11.7464C69.2479 11.6507 69.696 11.6029 70.1779 11.6029C70.6971 11.6029 71.1357 11.6604 71.4936 11.7755C71.8508 11.8906 72.1508 12.0476 72.3913 12.2471C72.7676 12.0326 73.1629 11.8712 73.5773 11.7636C73.9909 11.656 74.4471 11.6021 74.9436 11.6021C75.5385 11.6021 76.0335 11.6769 76.4288 11.8264C76.8241 11.9758 77.1366 12.1791 77.3661 12.4362C77.5957 12.6933 77.7578 12.9982 77.8517 13.351C77.9455 13.7037 77.9925 14.0797 77.9925 14.4788V17.5856H76.1853V14.7089C76.1853 14.5251 76.178 14.3465 76.1626 14.1738C76.1472 14.0012 76.1003 13.848 76.0218 13.7135C75.9426 13.5797 75.8164 13.4721 75.6433 13.3913C75.4702 13.3106 75.2253 13.2703 74.9092 13.2703C74.5931 13.2703 74.2674 13.2949 73.9777 13.345C73.688 13.3951 73.4071 13.4698 73.1365 13.5692C73.1739 13.7149 73.1988 13.8644 73.2098 14.0176C73.2208 14.1708 73.2267 14.3248 73.2267 14.478V17.5848H71.4196V14.7082C71.4196 14.5243 71.4122 14.3457 71.3968 14.1731C71.3814 14.0004 71.3345 13.8472 71.256 13.7127C71.1768 13.5789 71.0507 13.4713 70.8776 13.3906C70.7045 13.3099 70.4595 13.2695 70.1434 13.2695C69.5259 13.2695 68.9648 13.3614 68.461 13.546V17.5848H66.6538V11.8308H67.1056L67.1071 11.8323Z" fill="#292929"/>
<path d="M82.5786 17.8157C81.9464 17.8157 81.4227 17.741 81.0091 17.5915C80.5947 17.4421 80.2639 17.2365 80.0153 16.9757C79.7667 16.7149 79.5936 16.4099 79.496 16.0609C79.3985 15.7119 79.3494 15.3382 79.3494 14.9391V14.4788C79.3494 14.0797 79.3985 13.706 79.496 13.357C79.5936 13.0079 79.7674 12.703 80.0153 12.4422C80.2639 12.1814 80.5947 11.9758 81.0091 11.8264C81.4227 11.6769 81.9464 11.6021 82.5786 11.6021H82.8947C83.5343 11.6021 84.0579 11.65 84.4642 11.7456C84.8705 11.8413 85.1866 11.9736 85.4125 12.1425C85.6384 12.3114 85.7925 12.5072 85.8753 12.7292C85.9582 12.9519 85.9993 13.1895 85.9993 13.4429V13.558C85.9993 13.7882 85.9714 14.0064 85.9142 14.2142C85.8577 14.4212 85.7242 14.6058 85.513 14.7665C85.3018 14.9279 84.9916 15.0542 84.5816 15.1462C84.1709 15.2381 83.612 15.2844 82.9042 15.2844C82.5654 15.2844 82.253 15.2695 81.9669 15.2381C81.6809 15.2074 81.4095 15.1536 81.1536 15.0766C81.1609 15.2381 81.1873 15.3853 81.2328 15.5198C81.2783 15.6544 81.3626 15.7672 81.4865 15.8591C81.6105 15.9511 81.7858 16.0221 82.0117 16.0721C82.2376 16.1222 82.5383 16.1469 82.9152 16.1469C83.0957 16.1469 83.2974 16.1394 83.5196 16.1237C83.7418 16.1088 83.9714 16.0871 84.2083 16.0602C84.4452 16.0333 84.6784 15.9989 84.9087 15.9563C85.1382 15.9144 85.3509 15.8621 85.5468 15.8008V17.5273C85.3509 17.5736 85.1382 17.6132 84.9087 17.6483C84.6791 17.6827 84.4415 17.7134 84.1973 17.7403C83.9523 17.7672 83.7095 17.7866 83.469 17.7978C83.2277 17.809 83.0018 17.815 82.7913 17.815H82.5771L82.5786 17.8157ZM82.9057 13.0401C82.6043 13.0401 82.3527 13.0573 82.1488 13.0916C81.9449 13.126 81.7799 13.1776 81.6523 13.2471C81.524 13.3159 81.4264 13.4003 81.3589 13.5005C81.2915 13.6006 81.2423 13.7157 81.2123 13.8457C81.4308 13.907 81.6655 13.9511 81.9178 13.978C82.1701 14.0049 82.462 14.0184 82.7928 14.0184C83.1235 14.0184 83.3839 14.0049 83.5717 13.978C83.7594 13.9511 83.8988 13.9167 83.9897 13.8741C84.0799 13.8323 84.1364 13.7859 84.1591 13.7359C84.1819 13.6858 84.1929 13.6342 84.1929 13.5804C84.1929 13.5266 84.1833 13.4676 84.1643 13.4018C84.1452 13.3368 84.0924 13.277 84.0058 13.2232C83.9193 13.1694 83.7895 13.1253 83.6164 13.0909C83.4433 13.0565 83.2057 13.0393 82.905 13.0393L82.9057 13.0401Z" fill="#292929"/>
<path d="M34.9753 20.0548H34.4875V19.8755H35.6742V20.0548H35.1843V21.5092H34.9753V20.0548Z" fill="#292929"/>
<path d="M36.8279 19.7888H37.0369V20.5205H37.0413C37.0743 20.4599 37.1271 20.4069 37.1909 20.3702C37.2525 20.3336 37.3266 20.3097 37.4051 20.3097C37.5598 20.3097 37.807 20.4069 37.807 20.8112V21.5092H37.598V20.8358C37.598 20.6468 37.529 20.4868 37.3317 20.4868C37.1961 20.4868 37.089 20.584 37.0508 20.6998C37.0391 20.729 37.0369 20.7604 37.0369 20.8015V21.5092H36.8279V19.7888Z" fill="#292929"/>
<path d="M39.2627 20.9614C39.2671 21.2499 39.4483 21.3687 39.6573 21.3687C39.8069 21.3687 39.8979 21.3418 39.9763 21.3082L40.0123 21.4606C39.9382 21.4943 39.8128 21.5331 39.6294 21.5331C39.2752 21.5331 39.0632 21.2955 39.0632 20.942C39.0632 20.5885 39.2679 20.3097 39.603 20.3097C39.9785 20.3097 40.0783 20.6468 40.0783 20.862C40.0783 20.9053 40.0739 20.9397 40.0709 20.9614H39.2627ZM39.8766 20.8089C39.8788 20.6729 39.8216 20.4622 39.5862 20.4622C39.3742 20.4622 39.2818 20.661 39.2649 20.8089H39.8759H39.8766Z" fill="#292929"/>
<path d="M43.6759 20.7432H43.0525V21.3321H43.7471V21.5092H42.8457V19.8762H43.7111V20.0533H43.0525V20.5698H43.6759V20.7439V20.7432Z" fill="#292929"/>
<path d="M45.645 21.5092L45.6282 21.3612H45.6208C45.5563 21.4532 45.4331 21.5354 45.2688 21.5354C45.0356 21.5354 44.9167 21.368 44.9167 21.1983C44.9167 20.9151 45.1639 20.7596 45.6091 20.7618V20.7379C45.6091 20.6408 45.5827 20.4666 45.3473 20.4666C45.2402 20.4666 45.1287 20.5003 45.0473 20.5541L44.9996 20.4136C45.095 20.3508 45.2329 20.3097 45.3781 20.3097C45.7301 20.3097 45.8159 20.5548 45.8159 20.7895V21.2282C45.8159 21.3298 45.8203 21.4292 45.835 21.5092H45.645ZM45.6142 20.9106C45.3861 20.9053 45.1265 20.9472 45.1265 21.1744C45.1265 21.3127 45.2167 21.3777 45.3238 21.3777C45.4734 21.3777 45.5688 21.2805 45.6018 21.1811C45.6091 21.1594 45.6135 21.1348 45.6135 21.1131V20.9098L45.6142 20.9106Z" fill="#292929"/>
<path d="M47.1236 21.291C47.1852 21.3321 47.2945 21.3754 47.3994 21.3754C47.5519 21.3754 47.6231 21.2977 47.6231 21.2013C47.6231 21.0997 47.5637 21.0436 47.4089 20.9853C47.2021 20.9106 47.1045 20.794 47.1045 20.6535C47.1045 20.4644 47.2542 20.3097 47.502 20.3097C47.6187 20.3097 47.7206 20.3433 47.7851 20.3822L47.7331 20.5376C47.6876 20.5085 47.6047 20.4696 47.4976 20.4696C47.3737 20.4696 47.3048 20.5421 47.3048 20.6296C47.3048 20.7267 47.3737 20.7701 47.5233 20.8284C47.7228 20.9061 47.8255 21.0077 47.8255 21.1819C47.8255 21.3881 47.6685 21.5331 47.395 21.5331C47.2688 21.5331 47.1522 21.5017 47.0715 21.4532L47.1236 21.291Z" fill="#292929"/>
<path d="M49.3253 20.007C49.3275 20.0795 49.2754 20.1378 49.1918 20.1378C49.1185 20.1378 49.0657 20.0795 49.0657 20.007C49.0657 19.9345 49.1207 19.874 49.1962 19.874C49.2718 19.874 49.3246 19.9323 49.3246 20.007H49.3253ZM49.0921 21.5092V20.3366H49.3011V21.5092H49.0921Z" fill="#292929"/>
<path d="M50.7644 20.9614C50.7688 21.2499 50.95 21.3687 51.159 21.3687C51.3086 21.3687 51.3988 21.3418 51.4773 21.3082L51.5133 21.4606C51.4392 21.4943 51.3138 21.5331 51.1304 21.5331C50.7762 21.5331 50.5642 21.2955 50.5642 20.942C50.5642 20.5885 50.7688 20.3097 51.104 20.3097C51.4795 20.3097 51.5793 20.6468 51.5793 20.862C51.5793 20.9053 51.5749 20.9397 51.5719 20.9614H50.7637H50.7644ZM51.3783 20.8089C51.3805 20.6729 51.3233 20.4622 51.0879 20.4622C50.8759 20.4622 50.7835 20.661 50.7666 20.8089H51.3776H51.3783Z" fill="#292929"/>
<path d="M52.8091 21.291C52.8708 21.3321 52.98 21.3754 53.0849 21.3754C53.2375 21.3754 53.3086 21.2977 53.3086 21.2013C53.3086 21.0997 53.2492 21.0436 53.0945 20.9853C52.8876 20.9106 52.7901 20.794 52.7901 20.6535C52.7901 20.4644 52.9397 20.3097 53.1876 20.3097C53.3042 20.3097 53.4062 20.3433 53.4707 20.3822L53.4186 20.5376C53.3731 20.5085 53.2903 20.4696 53.1832 20.4696C53.0592 20.4696 52.9903 20.5421 52.9903 20.6296C52.9903 20.7267 53.0592 20.7701 53.2089 20.8284C53.4084 20.9061 53.511 21.0077 53.511 21.1819C53.511 21.3881 53.3541 21.5331 53.0805 21.5331C52.9544 21.5331 52.8378 21.5017 52.7571 21.4532L52.8091 21.291Z" fill="#292929"/>
<path d="M55.0298 19.9995V20.3366H55.3298V20.4988H55.0298V21.1311C55.0298 21.2768 55.0702 21.359 55.1868 21.359C55.2418 21.359 55.2821 21.3515 55.3078 21.3448L55.3173 21.5047C55.277 21.5219 55.2124 21.5339 55.1318 21.5339C55.0342 21.5339 54.9557 21.5025 54.9059 21.4442C54.8465 21.3814 54.8252 21.2768 54.8252 21.1385V20.4988H54.647V20.3366H54.8252V20.0556L55.0298 19.9995Z" fill="#292929"/>
<path d="M58.2496 21.5092L57.8433 19.8762H58.0618L58.2518 20.7028C58.2994 20.9061 58.342 21.1101 58.3706 21.2678H58.3757C58.4021 21.1056 58.452 20.9113 58.5063 20.7006L58.7204 19.877H58.9368L59.1319 20.7058C59.1774 20.8994 59.2199 21.0937 59.2434 21.2656H59.2478C59.2808 21.0862 59.3262 20.9046 59.3761 20.7013L59.5881 19.8777H59.8L59.346 21.5107H59.1297L58.9273 20.6602C58.8774 20.4517 58.8444 20.2918 58.8224 20.1273H58.8172C58.7886 20.2895 58.7527 20.4494 58.6933 20.6602L58.4652 21.5107H58.2488L58.2496 21.5092Z" fill="#292929"/>
<path d="M61.5501 21.5092L61.5332 21.3612H61.5259C61.4613 21.4532 61.3381 21.5354 61.1738 21.5354C60.9406 21.5354 60.8218 21.368 60.8218 21.1983C60.8218 20.9151 61.0689 20.7596 61.5141 20.7618V20.7379C61.5141 20.6408 61.4877 20.4666 61.2523 20.4666C61.1452 20.4666 61.0337 20.5003 60.9523 20.5541L60.9047 20.4136C61 20.3508 61.1379 20.3097 61.2831 20.3097C61.6351 20.3097 61.721 20.5548 61.721 20.7895V21.2282C61.721 21.3298 61.7254 21.4292 61.74 21.5092H61.5501ZM61.5193 20.9106C61.2912 20.9053 61.0315 20.9472 61.0315 21.1744C61.0315 21.3127 61.1217 21.3777 61.2288 21.3777C61.3784 21.3777 61.4738 21.2805 61.5068 21.1811C61.5141 21.1594 61.5185 21.1348 61.5185 21.1131V20.9098L61.5193 20.9106Z" fill="#292929"/>
<path d="M63.1151 20.3366L63.3674 21.0294C63.3938 21.1071 63.4224 21.1991 63.4407 21.2693H63.4458C63.4671 21.1991 63.4913 21.1094 63.5192 21.0242L63.7473 20.3358H63.9688L63.6549 21.1721C63.5052 21.5742 63.4026 21.7805 63.2603 21.9061C63.1583 21.998 63.0556 22.0346 63.0036 22.0443L62.9515 21.865C63.0036 21.8478 63.0725 21.8141 63.1349 21.7611C63.1921 21.7147 63.2632 21.6325 63.3109 21.5234C63.3204 21.5017 63.3277 21.4845 63.3277 21.4726C63.3277 21.4606 63.3233 21.4434 63.3138 21.4165L62.8884 20.3358H63.1165L63.1151 20.3366Z" fill="#292929"/>
<path d="M66.9119 19.9995V20.3366H67.2119V20.4988H66.9119V21.1311C66.9119 21.2768 66.9522 21.359 67.0688 21.359C67.1239 21.359 67.1642 21.3515 67.1899 21.3448L67.1994 21.5047C67.1591 21.5219 67.0945 21.5339 67.0138 21.5339C66.9163 21.5339 66.8378 21.5025 66.788 21.4442C66.7285 21.3814 66.7073 21.2768 66.7073 21.1385V20.4988H66.5291V20.3366H66.7073V20.0556L66.9119 19.9995Z" fill="#292929"/>
<path d="M69.4732 20.9128C69.4732 21.3463 69.1784 21.5354 68.9004 21.5354C68.5887 21.5354 68.3489 21.3029 68.3489 20.9322C68.3489 20.5399 68.6012 20.3097 68.9195 20.3097C69.2378 20.3097 69.4739 20.5548 69.4739 20.9128H69.4732ZM68.5601 20.9248C68.5601 21.1819 68.7053 21.3754 68.9099 21.3754C69.1146 21.3754 69.2598 21.1841 69.2598 20.9195C69.2598 20.7207 69.1622 20.4689 68.9151 20.4689C68.6679 20.4689 68.5608 20.7013 68.5608 20.9248H68.5601Z" fill="#292929"/>
<path d="M72.2461 19.8979C72.3363 19.8785 72.4793 19.8643 72.6245 19.8643C72.8314 19.8643 72.9648 19.9009 73.0646 19.9831C73.1475 20.0459 73.1981 20.143 73.1981 20.2716C73.1981 20.4293 73.0961 20.5675 72.9267 20.6303V20.6355C73.0793 20.6744 73.2575 20.8029 73.2575 21.0451C73.2575 21.1856 73.2025 21.2925 73.1218 21.3724C73.0103 21.4763 72.8292 21.5249 72.5681 21.5249C72.425 21.5249 72.3158 21.5152 72.2468 21.5055V19.8986L72.2461 19.8979ZM72.4529 20.5668H72.6407C72.8592 20.5668 72.9876 20.4502 72.9876 20.2932C72.9876 20.1019 72.8446 20.0264 72.6355 20.0264C72.5402 20.0264 72.4859 20.0339 72.4522 20.0406V20.5668H72.4529ZM72.4529 21.3493C72.4933 21.3567 72.5527 21.359 72.6267 21.359C72.8409 21.359 73.0382 21.279 73.0382 21.0414C73.0382 20.8186 72.8504 20.726 72.6245 20.726H72.4537V21.3485L72.4529 21.3493Z" fill="#292929"/>
<path d="M75.5775 20.9128C75.5775 21.3463 75.2826 21.5354 75.0047 21.5354C74.693 21.5354 74.4531 21.3029 74.4531 20.9322C74.4531 20.5399 74.7054 20.3097 75.0237 20.3097C75.342 20.3097 75.5782 20.5548 75.5782 20.9128H75.5775ZM74.6644 20.9248C74.6644 21.1819 74.8096 21.3754 75.0142 21.3754C75.2188 21.3754 75.364 21.1841 75.364 20.9195C75.364 20.7207 75.2665 20.4689 75.0193 20.4689C74.7722 20.4689 74.6651 20.7013 74.6651 20.9248H74.6644Z" fill="#292929"/>
<path d="M77.8817 20.9128C77.8817 21.3463 77.5868 21.5354 77.3089 21.5354C76.9972 21.5354 76.7573 21.3029 76.7573 20.9322C76.7573 20.5399 77.0096 20.3097 77.3279 20.3097C77.6462 20.3097 77.8824 20.5548 77.8824 20.9128H77.8817ZM76.9685 20.9248C76.9685 21.1819 77.1138 21.3754 77.3184 21.3754C77.523 21.3754 77.6682 21.1841 77.6682 20.9195C77.6682 20.7207 77.5707 20.4689 77.3235 20.4689C77.0764 20.4689 76.9693 20.7013 76.9693 20.9248H76.9685Z" fill="#292929"/>
<path d="M79.3509 20.8739H79.356C79.3846 20.8328 79.4249 20.782 79.4579 20.7409L79.7953 20.3358H80.0476L79.6032 20.8179L80.11 21.5085H79.8555L79.4579 20.9464L79.3509 21.0675V21.5085H79.144V19.788H79.3509V20.8739Z" fill="#292929"/>
</g>
<defs>
<clipPath id="clip0_2001_3">
<rect width="86" height="31" fill="white"/>
</clipPath>
</defs>
</svg>
